<svg width="24" height="24" viewBox="0 0 24 24" fill="none" xmlns="http://www.w3.org/2000/svg">
<path d="M7.96645 21.6171C7.57805 21.3548 7.23381 21.0308 6.94698 20.6575C6.63146 20.2722 6.33913 19.8679 6.07157 19.4468C5.44368 18.5134 4.95128 17.4932 4.60947 16.4176C4.19885 15.1682 4 13.9706 4 12.7993C4 11.4912 4.27888 10.3492 4.82432 9.38966C5.22864 8.63966 5.82311 8.01292 6.54621 7.57426C7.24698 7.13258 8.05217 6.89086 8.87695 6.87459C9.16568 6.87459 9.47657 6.91707 9.80654 6.99828C10.0436 7.06638 10.3323 7.17382 10.685 7.30751C11.1338 7.48305 11.3807 7.5905 11.4644 7.61674C11.7273 7.7142 11.9483 7.75668 12.1219 7.75668C12.2536 7.75668 12.4396 7.7142 12.6507 7.64923C12.7695 7.60675 12.9936 7.53178 13.3144 7.39247C13.632 7.27503 13.882 7.17445 14.0808 7.09948C14.3855 7.00828 14.6804 6.92394 14.9433 6.88146C15.2549 6.83161 15.5712 6.8184 15.8858 6.84211C16.431 6.87827 16.968 6.99551 17.4796 7.19007C18.3163 7.53178 18.9928 8.06528 19.4964 8.82368C19.2836 8.9568 19.0838 9.11035 18.8999 9.28221C18.4995 9.6424 18.1584 10.0653 17.8896 10.5347C17.5383 11.1764 17.3562 11.8991 17.3608 12.6331C17.3738 13.5346 17.6015 14.3286 18.0503 15.0151C18.3803 15.524 18.8091 15.9591 19.3105 16.2939C19.5672 16.4695 19.7882 16.59 20 16.6712C19.9009 16.9836 19.795 17.286 19.67 17.5858C19.3866 18.2583 19.0431 18.9029 18.6438 19.5118C18.288 20.0359 18.0091 20.4264 17.7973 20.6862C17.4673 21.0829 17.1497 21.3859 16.8289 21.5971C16.4762 21.8345 16.0594 21.9613 15.6359 21.9613C15.349 21.9724 15.0622 21.9372 14.7863 21.8569C14.5493 21.7757 14.3147 21.6876 14.0839 21.5871C13.8439 21.4752 13.5964 21.3806 13.3433 21.3041C12.7176 21.141 12.0616 21.1399 11.4355 21.301C11.1788 21.3759 10.9319 21.4634 10.6881 21.5708C10.3452 21.717 10.1174 21.8151 9.98569 21.8569C9.72282 21.935 9.4501 21.9838 9.1743 22C8.74767 22 8.34998 21.8763 7.95598 21.6258L7.96645 21.6171ZM13.5932 6.23989C13.0355 6.52288 12.503 6.64345 11.9741 6.60409C11.891 6.06372 11.9741 5.51085 12.1952 4.90551C12.3833 4.39267 12.6613 3.91859 13.0158 3.50617C13.3901 3.07201 13.8443 2.71615 14.3529 2.45854C14.8947 2.17554 15.4112 2.02249 15.9049 2C15.9689 2.56598 15.9049 3.1226 15.6999 3.72419C15.5102 4.25599 15.2327 4.75117 14.8793 5.18851C14.5185 5.62326 14.0759 5.9805 13.5772 6.23926L13.5932 6.23989Z" fill="#4E6B8E"/>
</svg>
