<svg width="91" height="91" viewBox="0 0 91 91" fill="none" xmlns="http://www.w3.org/2000/svg">
<circle cx="45.5" cy="45.5" r="45.5" fill="#F3F9FF"/>
<path d="M62.4591 29.375C62.1286 29.1605 61.7592 29.0133 61.3718 28.9416C60.9844 28.87 60.5868 28.8753 60.2015 28.9574C59.8162 29.0395 59.4508 29.1967 59.1263 29.4201C58.8018 29.6434 58.5244 29.9284 58.3101 30.259L41.5001 56.17L33.3021 48.59C33.0129 48.3225 32.6738 48.1147 32.3042 47.9783C31.9347 47.8419 31.5418 47.7796 31.1482 47.7951C30.3532 47.8262 29.6032 48.1718 29.0631 48.756C28.523 49.3401 28.237 50.1149 28.2682 50.9099C28.2993 51.7048 28.645 52.4549 29.2291 52.995L39.9931 62.947C39.9931 62.947 40.3021 63.213 40.4451 63.306C40.7756 63.5206 41.1451 63.668 41.5326 63.7397C41.9201 63.8115 42.3179 63.8061 42.7033 63.724C43.0887 63.6419 43.4542 63.4847 43.7788 63.2613C44.1034 63.0379 44.3808 62.7527 44.5951 62.422L63.3431 33.524C63.5576 33.1935 63.7048 32.8241 63.7765 32.4367C63.8481 32.0493 63.8427 31.6516 63.7606 31.2663C63.6785 30.8811 63.5213 30.5157 63.298 30.1912C63.0747 29.8667 62.7896 29.5893 62.4591 29.375V29.375Z" fill="#067AFF"/>
</svg>
