<svg width="24" height="24" viewBox="0 0 24 24" fill="none" xmlns="http://www.w3.org/2000/svg">
<path d="M20.283 10.356H11.956V13.807H16.748C16.302 16 14.435 17.26 11.956 17.26C11.2623 17.2612 10.5753 17.1255 9.93418 16.8605C9.2931 16.5956 8.71064 16.2067 8.22019 15.7161C7.72974 15.2256 7.34095 14.6431 7.07614 14.0019C6.81132 13.3608 6.67568 12.6737 6.677 11.98C6.67581 11.2865 6.81155 10.5995 7.07643 9.95845C7.3413 9.31743 7.7301 8.73501 8.22054 8.24457C8.71098 7.75414 9.2934 7.36533 9.93441 7.10046C10.5754 6.83559 11.2624 6.69985 11.956 6.70104C13.215 6.70104 14.353 7.14804 15.246 7.87904L17.846 5.28004C16.262 3.89904 14.231 3.04704 11.956 3.04704C10.7818 3.0436 9.61852 3.27235 8.53305 3.7201C7.44758 4.16786 6.46134 4.82581 5.63106 5.65609C4.80077 6.48637 4.14283 7.47261 3.69507 8.55808C3.24731 9.64356 3.01857 10.8068 3.022 11.981C3.01844 13.1553 3.24709 14.3186 3.6948 15.4041C4.14251 16.4897 4.80045 17.476 5.63076 18.3063C6.46107 19.1366 7.44736 19.7945 8.53289 20.2422C9.61843 20.6899 10.7818 20.9186 11.956 20.915C16.423 20.915 20.485 17.666 20.485 11.981C20.485 11.453 20.404 10.884 20.283 10.356Z" fill="#4E6B8E"/>
</svg>
