<svg width="91" height="91" viewBox="0 0 91 91" fill="none" xmlns="http://www.w3.org/2000/svg">
<circle cx="45.5" cy="45.5" r="45.5" fill="#F3F9FF"/>
<path d="M46 48.3C45.315 48.2918 44.644 48.4983 44.0772 48.8918C43.5105 49.2852 43.0753 49.8467 42.8302 50.5007C42.5851 51.1546 42.5419 51.8696 42.7063 52.5494C42.8708 53.2292 43.235 53.8412 43.75 54.303V57.5C43.75 58.11 43.9871 58.695 44.409 59.1263C44.831 59.5577 45.4033 59.8 46 59.8C46.5967 59.8 47.169 59.5577 47.591 59.1263C48.0129 58.695 48.25 58.11 48.25 57.5V54.303C48.765 53.8412 49.1292 53.2292 49.2937 52.5494C49.4581 51.8696 49.4149 51.1546 49.1698 50.5007C48.9247 49.8467 48.4895 49.2852 47.9228 48.8918C47.356 48.4983 46.685 48.2918 46 48.3V48.3ZM57.25 39.1V34.5C57.25 31.45 56.0647 28.5249 53.955 26.3683C51.8452 24.2116 48.9837 23 46 23C43.0163 23 40.1548 24.2116 38.045 26.3683C35.9353 28.5249 34.75 31.45 34.75 34.5V39.1C32.9598 39.1 31.2429 39.827 29.977 41.121C28.7112 42.415 28 44.17 28 46V62.1C28 63.93 28.7112 65.685 29.977 66.979C31.2429 68.273 32.9598 69 34.75 69H57.25C59.0402 69 60.7571 68.273 62.023 66.979C63.2888 65.685 64 63.93 64 62.1V46C64 44.17 63.2888 42.415 62.023 41.121C60.7571 39.827 59.0402 39.1 57.25 39.1ZM39.25 34.5C39.25 32.67 39.9612 30.915 41.227 29.621C42.4929 28.327 44.2098 27.6 46 27.6C47.7902 27.6 49.5071 28.327 50.773 29.621C52.0388 30.915 52.75 32.67 52.75 34.5V39.1H39.25V34.5ZM59.5 62.1C59.5 62.71 59.2629 63.295 58.841 63.7263C58.419 64.1577 57.8467 64.4 57.25 64.4H34.75C34.1533 64.4 33.581 64.1577 33.159 63.7263C32.7371 63.295 32.5 62.71 32.5 62.1V46C32.5 45.39 32.7371 44.805 33.159 44.3737C33.581 43.9423 34.1533 43.7 34.75 43.7H57.25C57.8467 43.7 58.419 43.9423 58.841 44.3737C59.2629 44.805 59.5 45.39 59.5 46V62.1Z" fill="#067AFF"/>
</svg>
