<svg width="91" height="91" viewBox="0 0 91 91" fill="none" xmlns="http://www.w3.org/2000/svg">
<circle cx="45.5" cy="45.5" r="45.5" fill="#F3F9FF"/>
<path d="M53.1923 25H37.8077C36.5326 25 35.3098 25.5028 34.4081 26.3979C33.5065 27.293 33 28.5069 33 29.7727V62.2273C33 63.4931 33.5065 64.707 34.4081 65.6021C35.3098 66.4972 36.5326 67 37.8077 67H53.1923C54.4674 67 55.6902 66.4972 56.5919 65.6021C57.4935 64.707 58 63.4931 58 62.2273V29.7727C58 28.5069 57.4935 27.293 56.5919 26.3979C55.6902 25.5028 54.4674 25 53.1923 25V25ZM45.5 65.0909C43.9038 65.0909 42.6154 63.8118 42.6154 62.2273C42.6154 60.6427 43.9038 59.3636 45.5 59.3636C47.0962 59.3636 48.3846 60.6427 48.3846 62.2273C48.3846 63.8118 47.0962 65.0909 45.5 65.0909ZM54.1538 57.4545H36.8462V30.7273H54.1538V57.4545Z" fill="#067AFF"/>
</svg>
