<svg width="91" height="91" viewBox="0 0 91 91" fill="none" xmlns="http://www.w3.org/2000/svg">
<circle cx="45.5" cy="45.5" r="45.5" fill="#F3F9FF"/>
<path d="M44.1006 45.9996C49.1824 45.9996 53.301 41.9708 53.301 36.9998C53.301 32.0288 49.1824 28 44.1006 28C39.0189 28 34.9003 32.0288 34.9003 36.9998C34.9003 41.9708 39.0189 45.9996 44.1006 45.9996ZM50.5409 48.2495H49.3405C47.7448 48.9667 45.9695 49.3745 44.1006 49.3745C42.2318 49.3745 40.4636 48.9667 38.8607 48.2495H37.6604C32.327 48.2495 28 52.4822 28 57.6993V60.6242C28 62.4875 29.5454 63.9991 31.4501 63.9991H51.2093C51.0368 63.521 50.965 63.0148 51.0225 62.5015L51.5112 58.2196L51.5975 57.4391L52.1653 56.8837L57.7215 51.4487C55.9605 49.5011 53.4088 48.2495 50.5409 48.2495V48.2495ZM53.7969 58.4657L53.3082 62.7546C53.2291 63.4718 53.8473 64.0765 54.5732 63.9921L58.9506 63.514L68.8625 53.8181L63.7089 48.7769L53.7969 58.4657V58.4657ZM73.4987 46.9066L70.7745 44.2418C70.106 43.5879 69.0135 43.5879 68.345 44.2418L65.628 46.8996L65.3333 47.1878L70.4942 52.2291L73.4987 49.2901C74.1671 48.6292 74.1671 47.5675 73.4987 46.9066V46.9066Z" fill="#067AFF"/>
</svg>
